<?xml version="1.0" encoding="UTF-8"?>
<svg version="1.1" xmlns="http://www.w3.org/2000/svg" width="266" height="290">
<path d="M0 0 C3.74781102 1.87390551 5.04623902 3.17265472 7.55371094 6.328125 C9.05532271 8.06395171 10.63092428 9.46523287 12.390625 10.9375 C17.78994259 15.60183518 22.81515937 20.62909818 27.85742188 25.67211914 C29.51936188 27.33183598 31.1891961 28.98334457 32.859375 30.63476562 C33.91715357 31.68961614 34.97446325 32.7449371 36.03125 33.80078125 C36.53112427 34.29347 37.03099854 34.78615875 37.54602051 35.29377747 C41 38.77112877 41 38.77112877 41 41 C41.99 41.33 42.98 41.66 44 42 C45.6875 43.4375 45.6875 43.4375 47 45 C47 45.66 47 46.32 47 47 C47.59135365 47.27144931 48.18270729 47.54289862 48.79198074 47.82257366 C50.96488308 48.9812739 52.51849142 50.18124035 54.32830811 51.83882141 C54.96486832 52.41916138 55.60142853 52.99950134 56.25727844 53.59742737 C56.94420273 54.23341354 57.63112701 54.86939972 58.33886719 55.5246582 C59.07096909 56.19703522 59.80307098 56.86941223 60.55735779 57.56216431 C67.3391816 63.81893166 74.01773518 70.18418087 80.66488266 76.58356953 C85.12060349 80.86966733 89.60344005 85.11392829 94.17626953 89.27514648 C127.38169763 119.5608826 127.38169763 119.5608826 128.48967361 137.36283779 C128.63362435 145.35788467 127.66878615 153.18948638 126 161 C122.69993162 159.55845892 120.52845757 157.77393048 117.99507141 155.22885132 C117.20850159 154.44358566 116.42193176 153.65832001 115.61152649 152.84925842 C114.75785995 151.98683029 113.90419342 151.12440216 113.0246582 150.23583984 C112.11859833 149.32846573 111.21253845 148.42109161 110.27902222 147.48622131 C108.31121919 145.51548837 106.34661039 143.54164443 104.38442421 141.56531906 C101.28462481 138.44324967 98.17774899 135.32828755 95.06987 132.21426392 C90.15873377 127.29175337 85.25229601 122.3645902 80.34788436 117.43538058 C71.55457067 108.5976905 62.75560608 99.7656348 53.95147198 90.93872416 C50.85987169 87.83869341 47.77110214 84.7358767 44.68454516 81.6308248 C43.22955123 80.16777369 41.77345532 78.70583018 40.31686401 77.24436951 C38.53661305 75.45805812 36.75819794 73.66991466 34.98188782 71.87968445 C34.20377747 71.10005844 33.42566711 70.32043243 32.62397766 69.5171814 C31.94428075 68.83396505 31.26458384 68.15074871 30.56429005 67.44682884 C29.23277832 65.88683221 29.23277832 65.88683221 28 66 C27.67 111.54 27.34 157.08 27 204 C30.3 204 33.6 204 37 204 C37 163.74 37 123.48 37 82 C48.41114861 87.7055743 59.13643508 94.67188703 64 107 C68.30002415 125.09250109 66.32516495 145.39791843 65.65661585 163.88399661 C65.37059737 171.93580391 65.24758574 179.98928034 65.12304688 188.04492188 C64.90088162 202.37048355 64.44012277 216.67581102 64 231 C42.88 231 21.76 231 0 231 C0 154.77 0 78.54 0 0 Z " fill="#B1F6F5" transform="translate(47,48)"/>
<path d="M0 0 C6.77715965 5.5583674 12.88350353 11.75631661 19.05859375 17.9609375 C20.21422229 19.11843426 21.37007414 20.27570811 22.52613831 21.43276978 C25.54827738 24.45870218 28.56739953 27.48762697 31.58587646 30.51721191 C34.67455447 33.61617295 37.76611335 36.71225713 40.85742188 39.80859375 C46.90775098 45.86960394 52.95489193 51.93378247 59 58 C65.15848166 52.95308654 70.73790757 47.37978559 76.33973312 41.73543167 C78.052007 40.0102781 79.76748745 38.28837013 81.48379517 36.56723022 C85.1170325 32.92263811 88.74628582 29.27409483 92.375 25.625 C96.60226818 21.37413906 100.83114912 17.1249084 105.06422806 12.87983322 C106.75754245 11.18001856 108.44783008 9.47723226 110.13803101 7.77432251 C111.16658119 6.7421432 112.19527011 5.71010213 113.22412109 4.67822266 C114.12456146 3.77254547 115.02500183 2.86686829 115.95272827 1.93374634 C118 0 118 0 119 0 C119 84.81 119 169.62 119 257 C110.09 257 101.18 257 92 257 C91.67 193.97 91.34 130.94 91 66 C80.77 76.23 70.54 86.46 60 97 C55.42498305 93.0785569 51.06749646 89.20779837 46.84765625 84.9453125 C46.30265976 84.39890106 45.75766327 83.85248962 45.19615173 83.28952026 C43.48253882 81.57037942 41.77246556 79.84776796 40.0625 78.125 C38.89020796 76.94768362 37.71768386 75.77059826 36.54492188 74.59375 C33.69393018 71.73182511 30.84610385 68.86678543 28 66 C26.05909174 67.94090826 26.60080565 71.47293902 26.4375 74.0625 C26.35371094 75.35285156 26.26992187 76.64320312 26.18359375 77.97265625 C26.09271484 79.47119141 26.09271484 79.47119141 26 81 C20.45521854 78.67763339 16.55072038 73.99889965 12.35375977 69.83422852 C10.82062376 68.32052082 9.26749739 66.82949607 7.71289062 65.33789062 C6.73045659 64.36851765 5.74929322 63.39785485 4.76953125 62.42578125 C3.43305542 61.11734253 3.43305542 61.11734253 2.06958008 59.7824707 C-2.33573137 53.85969913 -1.14674051 45.73741341 -1.1328125 38.6328125 C-1.13424759 37.01981766 -1.13424759 37.01981766 -1.13571167 35.37423706 C-1.13638958 33.11342307 -1.13456256 30.85260709 -1.13037109 28.59179688 C-1.12498581 25.11584168 -1.13034536 21.64001386 -1.13671875 18.1640625 C-1.13605852 15.96614555 -1.13477849 13.76822867 -1.1328125 11.5703125 C-1.13483673 10.52561798 -1.13686096 9.48092346 -1.13894653 8.40457153 C-1.13579437 7.44622406 -1.13264221 6.48787659 -1.12939453 5.50048828 C-1.12820114 4.22976974 -1.12820114 4.22976974 -1.12698364 2.93338013 C-1 1 -1 1 0 0 Z " fill="#B2F6F5" transform="translate(85,22)"/>
<path d="M0 0 C0 76.23 0 152.46 0 231 C-2.31 229.02 -4.62 227.04 -7 225 C-9.37591303 223.14732396 -9.37591303 223.14732396 -11.75679016 221.30104065 C-32.89185504 204.62532563 -32.89185504 204.62532563 -34.51789856 191.62800598 C-35.21669818 181.72561018 -34.3568787 171.81288254 -33 162 C-31 162 -31 162 -29.375 163.5 C-28.694375 164.2425 -28.694375 164.2425 -28 165 C-27.99853344 164.26708048 -27.99706688 163.53416096 -27.99555588 162.77903175 C-27.95844779 144.91667689 -27.89938014 127.05451694 -27.81609726 109.19231606 C-27.77634703 100.55415169 -27.74393419 91.9160779 -27.72900391 83.27783203 C-27.71596651 75.74566083 -27.68894878 68.21368925 -27.64538693 60.68163049 C-27.62281885 56.69619941 -27.60708651 52.71101411 -27.60811615 48.72551346 C-27.60886554 44.96774293 -27.59080428 41.21051476 -27.55883217 37.45288467 C-27.54636369 35.42950452 -27.55337543 33.40603306 -27.56114197 31.38262939 C-27.46249151 22.69389121 -26.27307867 15.52832122 -21.10546875 8.37890625 C-15.45282101 3.02558405 -8.19495469 -2.73165156 0 0 Z " fill="#B1F7F5" transform="translate(242,48)"/>
<path d="M0 0 C4.17799643 2.08899822 4.92391901 3.05544612 7 7 C5.35 6.67 3.7 6.34 2 6 C2 79.59 2 153.18 2 229 C17.18 229 32.36 229 48 229 C48.33 229.66 48.66 230.32 49 231 C32.83 231 16.66 231 0 231 C0 154.77 0 78.54 0 0 Z " fill="#BBF5FC" transform="translate(47,48)"/>
<path d="M0 0 C0.66 0 1.32 0 2 0 C2 73.92 2 147.84 2 224 C-5.875 217.25 -5.875 217.25 -9 213 C-5.56404834 214.52708963 -2.88087546 216.59927045 0 219 C-0.16330276 218.02835876 -0.32660551 217.05671751 -0.49485683 216.05563259 C-1.1087877 211.72800495 -1.11919812 207.47387784 -1.08229065 203.10987854 C-1.07906152 202.23818447 -1.07583239 201.36649039 -1.07250541 200.46838135 C-1.06048377 197.56033673 -1.04110006 194.652389 -1.02172852 191.74438477 C-1.01158006 189.65471097 -1.001887 187.56503492 -0.99261475 185.47535706 C-0.96619055 179.81063187 -0.9333995 174.14595935 -0.89946485 168.48127484 C-0.86506552 162.55824948 -0.83652234 156.63519598 -0.80735779 150.71214294 C-0.75125884 139.49965628 -0.68989373 128.28720487 -0.62663645 117.07475656 C-0.55486795 104.3082314 -0.48897044 91.54167805 -0.42356598 78.77511895 C-0.28890979 52.51670938 -0.14688109 26.25834383 0 0 Z " fill="#B9FAFE" transform="translate(240,55)"/>
<path d="M0 0 C0.33 0 0.66 0 1 0 C1.33 83.49 1.66 166.98 2 253 C-6.91 253 -15.82 253 -25 253 C-24.505 251.02 -24.505 251.02 -24 249 C-23.01 248.67 -22.02 248.34 -21 248 C-20.34 248.66 -19.68 249.32 -19 250 C-17.06318864 250.27654388 -17.06318864 250.27654388 -14.8671875 250.1953125 C-14.06152344 250.18886719 -13.25585938 250.18242187 -12.42578125 250.17578125 C-11.16314453 250.15064453 -11.16314453 250.15064453 -9.875 250.125 C-8.60076172 250.11146484 -8.60076172 250.11146484 -7.30078125 250.09765625 C-5.20040116 250.07405647 -3.10016556 250.03818483 -1 250 C-1 248.73494723 -1 247.46989447 -1 246.16650677 C-1 166.09432274 -1 86.02213871 0 0 Z " fill="#B9FCFD" transform="translate(202,26)"/>
<path d="M0 0 C1.65600412 1.38000344 3.30558188 2.76831181 4.92542267 4.1905899 C6.29063474 5.38130402 7.68520258 6.53930224 9.10869598 7.65969086 C13.36996329 11.32062986 15.50151231 13.97516434 15.96203613 19.66955566 C15.98505713 21.87666187 15.96432988 24.08450309 15.90820312 26.29101562 C15.90937134 27.50162659 15.91053955 28.71223755 15.91174316 29.95953369 C15.9071452 33.25757971 15.86721729 36.55286042 15.8111515 39.85035896 C15.76091766 43.30420889 15.75642436 46.7581214 15.74694824 50.21228027 C15.72214766 56.74323614 15.65658918 63.27311231 15.57615232 69.80359411 C15.48652913 77.24242092 15.4426965 84.68130108 15.40258884 92.12053394 C15.31911474 107.41431318 15.17853059 122.70701701 15 138 C12.69 138 10.38 138 8 138 C8 137.34 8 136.68 8 136 C9.32 136 10.64 136 12 136 C12.97720273 133.0683918 13.11801755 131.22957691 13.10247803 128.1796875 C13.09977402 127.18702881 13.09707001 126.19437012 13.09428406 125.17163086 C13.08605118 124.08374268 13.0778183 122.99585449 13.06933594 121.875 C13.06215294 120.15518921 13.06215294 120.15518921 13.05482483 118.40063477 C13.03710112 114.60036747 13.01136918 110.80021213 12.984375 107 C12.96768959 104.36588556 12.95102728 101.73177098 12.93438721 99.09765625 C12.90295998 94.27931288 12.86781908 89.46101059 12.82973552 84.64271545 C12.77366753 77.54759503 12.73066468 70.45255526 12.69905448 63.35728455 C12.67082469 57.21316661 12.62628021 51.06926596 12.57575226 44.92529297 C12.55651057 42.30976494 12.54223849 39.6941956 12.53295135 37.07861328 C12.51868233 33.42714219 12.48581415 29.77629518 12.44824219 26.125 C12.44810623 25.03711182 12.44797028 23.94922363 12.4478302 22.82836914 C12.43384689 21.83571045 12.41986359 20.84305176 12.40545654 19.8203125 C12.39954876 18.95680176 12.39364098 18.09329102 12.38755417 17.20361328 C11.91811734 14.53441934 10.97387875 13.77185607 9 12 C9 11.34 9 10.68 9 10 C7.88625 9.773125 6.7725 9.54625 5.625 9.3125 C2 8 2 8 0.5625 5.5625 C0 3 0 3 0 0 Z " fill="#BCF7FD" transform="translate(96,141)"/>
<path d="M0 0 C0 3 0 3 -1.4375 5.1875 C-3.48549619 8.87389314 -3.64530826 11.81463747 -4 16 C-4.99 16 -5.98 16 -7 16 C-6.99815641 16.71967894 -6.99631283 17.43935787 -6.99441338 18.18084526 C-6.95029023 35.67307897 -6.91717071 53.16529858 -6.89637566 70.65757561 C-6.88605265 79.11662669 -6.87197282 87.57564069 -6.84912109 96.03466797 C-6.82921849 103.40551532 -6.81629102 110.77633581 -6.81182301 118.14720929 C-6.8092103 122.05187689 -6.8030482 125.95646765 -6.78853989 129.86111069 C-6.77500534 133.53329672 -6.77076894 137.20537395 -6.77378464 140.87758255 C-6.77296862 142.87392816 -6.76218545 144.87026182 -6.75115967 146.86657715 C-6.753909 148.04730804 -6.75665833 149.22803894 -6.75949097 150.44454956 C-6.75764738 151.47511412 -6.75580379 152.50567867 -6.75390434 153.56747246 C-7 156 -7 156 -9 158 C-9.09358769 139.52786911 -9.16404978 121.05578658 -9.20724869 102.58346748 C-9.22784299 94.00575951 -9.2559034 85.42819915 -9.30175781 76.85058594 C-9.34172182 69.37125542 -9.36745557 61.89203186 -9.37635398 54.41259754 C-9.38155262 50.45503612 -9.39370523 46.49778058 -9.42292023 42.54031754 C-9.45024093 38.80892647 -9.45841177 35.07796482 -9.45243073 31.34648323 C-9.45404135 29.33732221 -9.47547644 27.32820706 -9.49768066 25.31916809 C-9.45845648 16.63801456 -8.59083383 8.3490867 -2.25 1.875 C-1.13625 0.946875 -1.13625 0.946875 0 0 Z " fill="#BBF2FB" transform="translate(224,54)"/>
<path d="M0 0 C0.66 0.33 1.32 0.66 2 1 C-0.62934681 4.33050596 -3.06329999 7.27946153 -6.4375 9.875 C-8.76612055 11.80605119 -10.26612109 13.556807 -12 16 C-12.9793879 17.02019573 -13.97895449 18.02149805 -15 19 C-15.515625 19.515625 -16.03125 20.03125 -16.5625 20.5625 C-17.70833333 21.70833333 -18.85416667 22.85416667 -20 24 C-20 24.66 -20 25.32 -20 26 C-21.36125 26.6496875 -21.36125 26.6496875 -22.75 27.3125 C-25.43218449 28.70517271 -27.66139605 30.11112757 -30 32 C-28.71977125 29.19030533 -27.39285871 27.1460762 -25.20263672 24.97558594 C-24.64220673 24.41530701 -24.08177673 23.85502808 -23.50436401 23.277771 C-22.90222076 22.68595032 -22.30007751 22.09412964 -21.6796875 21.484375 C-21.06102814 20.86854553 -20.44236877 20.25271606 -19.80496216 19.6182251 C-17.83296186 17.65739664 -15.85411263 15.70364699 -13.875 13.75 C-12.53469836 12.41973201 -11.19484917 11.089008 -9.85546875 9.7578125 C-6.57553411 6.4998985 -3.28944058 3.24831467 0 0 Z " fill="#BDF6FC" transform="translate(175,50)"/>
<path d="M0 0 C2 0 2 0 3.625 1.5 C4.07875 1.995 4.5325 2.49 5 3 C4.67 3.99 4.34 4.98 4 6 C3.34 5.67 2.68 5.34 2 5 C2 14.24 2 23.48 2 33 C1.34 32.67 0.68 32.34 0 32 C0 21.44 0 10.88 0 0 Z " fill="#BFF7FC" transform="translate(209,210)"/>
<path d="M0 0 C0.598125 0.309375 1.19625 0.61875 1.8125 0.9375 C4.08956772 2.10209704 4.08956772 2.10209704 7 3 C8.35386936 4.65002828 9.68678142 6.3174387 11 8 C11.99 8.66 12.98 9.32 14 10 C14.33 10.33 14.66 10.66 15 11 C15.7734375 11.7115625 15.7734375 11.7115625 16.5625 12.4375 C18 14 18 14 18 16 C18.763125 15.484375 19.52625 14.96875 20.3125 14.4375 C21.199375 13.963125 22.08625 13.48875 23 13 C23.99 13.33 24.98 13.66 26 14 C23.69 15.98 21.38 17.96 19 20 C15.8293305 16.85817898 12.66414446 13.71089125 9.5 10.5625 C8.59378906 9.66466797 7.68757812 8.76683594 6.75390625 7.84179688 C5.89667969 6.98779297 5.03945312 6.13378906 4.15625 5.25390625 C3.36025391 4.46314697 2.56425781 3.6723877 1.74414062 2.85766602 C0 1 0 1 0 0 Z " fill="#BDF7FC" transform="translate(125,99)"/>
<path d="M0 0 C0.33 0.99 0.66 1.98 1 3 C-5.6 9.6 -12.2 16.2 -19 23 C-19.33 22.34 -19.66 21.68 -20 21 C-18.88200014 19.66079162 -17.75538103 18.32877444 -16.625 17 C-15.68527344 15.88625 -15.68527344 15.88625 -14.7265625 14.75 C-13.87191406 13.88375 -13.87191406 13.88375 -13 13 C-12.34 13 -11.68 13 -11 13 C-10.773125 12.4225 -10.54625 11.845 -10.3125 11.25 C-8.66216522 8.42085466 -6.56741423 7.01725404 -4 5 C-2.62631655 3.36643049 -1.28062485 1.7074998 0 0 Z " fill="#BFF7FD" transform="translate(172,88)"/>
<path d="M0 0 C3.49353838 1.74676919 5.13945763 2.91405215 7.75 5.625 C8.67039062 6.57246094 8.67039062 6.57246094 9.609375 7.5390625 C10.29773438 8.26222656 10.29773438 8.26222656 11 9 C10.01 9.33 9.02 9.66 8 10 C5.3125 8.5625 5.3125 8.5625 3 7 C3 8.32 3 9.64 3 11 C2.01 10.67 1.02 10.34 0 10 C0 6.7 0 3.4 0 0 Z " fill="#BCF6FB" transform="translate(84,130)"/>
<path d="M0 0 C1.9375 0.375 1.9375 0.375 4 1 C4.33 1.66 4.66 2.32 5 3 C5.99 3 6.98 3 8 3 C8.061875 3.78375 8.12375 4.5675 8.1875 5.375 C8.455625 6.24125 8.72375 7.1075 9 8 C11.39529669 9.32481546 11.39529669 9.32481546 14 10 C14.66 10.33 15.32 10.66 16 11 C16.34342449 12.33076989 16.67619874 13.66431979 17 15 C17.66 15.66 18.32 16.32 19 17 C16 17 16 17 14.19067383 15.54711914 C13.53607178 14.88317139 12.88146973 14.21922363 12.20703125 13.53515625 C11.1387207 12.45911133 11.1387207 12.45911133 10.04882812 11.36132812 C9.31083984 10.60271484 8.57285156 9.84410156 7.8125 9.0625 C7.06291016 8.30775391 6.31332031 7.55300781 5.54101562 6.77539062 C0 1.15370507 0 1.15370507 0 0 Z " fill="#C0FAFD" transform="translate(133,170)"/>
<path d="M0 0 C1.15518918 0.90484792 2.29885406 1.8244206 3.4375 2.75 C4.07558594 3.26046875 4.71367188 3.7709375 5.37109375 4.296875 C7.18810554 6.19667629 7.60423197 7.43586908 8 10 C6.35 9.01 4.7 8.02 3 7 C2.67 10.63 2.34 14.26 2 18 C1.67 18 1.34 18 1 18 C1 13.71 1 9.42 1 5 C0.34 5 -0.32 5 -1 5 C-0.67 3.35 -0.34 1.7 0 0 Z " fill="#BCF3FC" transform="translate(85,22)"/>
<path d="M0 0 C5.24284116 4.3690343 10.51941304 8.83277764 15 14 C15 14.66 15 15.32 15 16 C10.40726002 14.63459082 9.38523216 13.00719002 7 9 C5.96875 8.34 4.9375 7.68 3.875 7 C1 5 1 5 0.125 2.25 C0.08375 1.5075 0.0425 0.765 0 0 Z " fill="#BCEFFE" transform="translate(120,120)"/>
<path d="M0 0 C4.91935902 4.11619836 9.52647956 8.40410362 14 13 C13.34 13.66 12.68 14.32 12 15 C7.66666667 10.66666667 3.33333333 6.33333333 -1 2 C-0.67 1.34 -0.34 0.68 0 0 Z " fill="#BEF8FD" transform="translate(137,137)"/>
<path d="M0 0 C4.07376031 1.61010527 6.76507069 4.53822271 9.75 7.625 C10.25660156 8.140625 10.76320313 8.65625 11.28515625 9.1875 C12.52803902 10.45383339 13.76465276 11.7263144 15 13 C14.01 13.495 14.01 13.495 13 14 C11.8274869 13.04882866 10.66212985 12.08882991 9.5 11.125 C8.8503125 10.59132813 8.200625 10.05765625 7.53125 9.5078125 C7.0259375 9.01023437 6.520625 8.51265625 6 8 C6 7.34 6 6.68 6 6 C5.38125 5.71125 4.7625 5.4225 4.125 5.125 C2 4 2 4 0 2 C0 1.34 0 0.68 0 0 Z " fill="#BEF6FD" transform="translate(112,50)"/>
<path d="M0 0 C2.38564077 0.57584432 4.66682784 1.22227595 7 2 C7.33 1.34 7.66 0.68 8 0 C9.125 6.75 9.125 6.75 8 9 C6.66368764 7.6905332 5.33102075 6.37734515 4 5.0625 C3.2575 4.33160156 2.515 3.60070312 1.75 2.84765625 C0 1 0 1 0 0 Z " fill="#BCF8FB" transform="translate(85,122)"/>
<path d="M0 0 C5.25414733 2.07400553 7.11713192 3.07510036 10 8 C10.66 8.66 11.32 9.32 12 10 C9 10 9 10 6.73828125 8.06640625 C5.93777344 7.24011719 5.13726562 6.41382813 4.3125 5.5625 C3.50425781 4.73878906 2.69601563 3.91507813 1.86328125 3.06640625 C0 1 0 1 0 0 Z " fill="#C1FAFE" transform="translate(212,249)"/>
<path d="M0 0 C2.8125 0.125 2.8125 0.125 6 1 C7.875 4.0625 7.875 4.0625 9 7 C6 7 6 7 4.39453125 5.46875 C3.87246094 4.8190625 3.35039062 4.169375 2.8125 3.5 C2.28269531 2.8503125 1.75289062 2.200625 1.20703125 1.53125 C0.80871094 1.0259375 0.41039062 0.520625 0 0 Z " fill="#BDF9FC" transform="translate(151,188)"/>
<path d="M0 0 C3.55420724 0.29618394 4.80337043 0.80337043 7.375 3.375 C8.179375 4.674375 8.179375 4.674375 9 6 C8.67 6.99 8.34 7.98 8 9 C6.66368764 7.6905332 5.33102075 6.37734515 4 5.0625 C3.2575 4.33160156 2.515 3.60070312 1.75 2.84765625 C0 1 0 1 0 0 Z " fill="#BDF2FE" transform="translate(87,80)"/>
<path d="M0 0 C3.80014965 0.54287852 5.53896313 2.11464643 8 5 C8.33 5.99 8.66 6.98 9 8 C9.66 8.33 10.32 8.66 11 9 C8 9 8 9 5.95703125 7.28515625 C5.24933594 6.55167969 4.54164062 5.81820312 3.8125 5.0625 C3.09707031 4.33160156 2.38164063 3.60070312 1.64453125 2.84765625 C0 1 0 1 0 0 Z " fill="#C0FAFE" transform="translate(117,154)"/>
<path d="M0 0 C3.82946843 1.45255699 5.12050295 3.42895561 7 7 C6.21625 6.814375 5.4325 6.62875 4.625 6.4375 C2.02910225 5.74037734 2.02910225 5.74037734 0 7 C0 4.69 0 2.38 0 0 Z " fill="#C4F6FE" transform="translate(47,48)"/>
<path d="M0 0 C3.36179774 1.44077046 5.59156268 3.24750021 8 6 C8 6.66 8 7.32 8 8 C4.22699642 6.9802693 3.19793856 6.34127338 1.1875 2.875 C0.795625 1.92625 0.40375 0.9775 0 0 Z " fill="#BDF8FD" transform="translate(111,112)"/>
<path d="M0 0 C1.14926266 0.95421808 2.29430541 1.91352045 3.4375 2.875 C4.07558594 3.40867187 4.71367188 3.94234375 5.37109375 4.4921875 C7 6 7 6 8 8 C4.89347355 7.6641593 3.39585697 7.40950721 1.1875 5.125 C0 3 0 3 0 0 Z " fill="#BBF8FD" transform="translate(64,64)"/>
<path d="M0 0 C3.78520613 0.54074373 5.59177555 2.07572746 8 5 C8 5.99 8 6.98 8 8 C7.34 8 6.68 8 6 8 C2 3.52941176 2 3.52941176 2 1 C1.34 0.67 0.68 0.34 0 0 Z " fill="#C0F7FE" transform="translate(165,167)"/>
<path d="M0 0 C2.31 1.98 4.62 3.96 7 6 C6.01 6.495 6.01 6.495 5 7 C4.01 6.67 3.02 6.34 2 6 C2 5.34 2 4.68 2 4 C1.01 3.67 0.02 3.34 -1 3 C-0.67 2.01 -0.34 1.02 0 0 Z " fill="#BAF6FD" transform="translate(98,98)"/>
<path d="M0 0 C2 2 2 2 2 6 C-1.16115776 4.63016497 -1.9927092 4.0109362 -4 1 C-2.125 0.375 -2.125 0.375 0 0 Z " fill="#C4F8FE" transform="translate(171,203)"/>
<path d="M0 0 C1.98 1.65 3.96 3.3 6 5 C4.68 5.33 3.36 5.66 2 6 C1.01 4.35 0.02 2.7 -1 1 C-0.67 0.67 -0.34 0.34 0 0 Z " fill="#BBF0FC" transform="translate(73,73)"/>
<path d="M0 0 C1.98 1.65 3.96 3.3 6 5 C5.34 5.66 4.68 6.32 4 7 C2.35 5.35 0.7 3.7 -1 2 C-0.67 1.34 -0.34 0.68 0 0 Z " fill="#BBF1FE" transform="translate(105,105)"/>
<path d="M0 0 C1.7074998 1.28062485 3.37373596 2.61767557 5 4 C5 4.66 5 5.32 5 6 C5.66 6 6.32 6 7 6 C6.67 6.66 6.34 7.32 6 8 C3 6.25 3 6.25 0 4 C0 2.68 0 1.36 0 0 Z " fill="#BEF8FD" transform="translate(89,89)"/>
<path d="M0 0 C2.04119788 1.61594832 4.04072937 3.2856382 6 5 C6 5.66 6 6.32 6 7 C4 6 2 5 0 4 C0 2.68 0 1.36 0 0 Z " fill="#BAF3FA" transform="translate(104,41)"/>
<path d="M0 0 C2.04119788 1.61594832 4.04072937 3.2856382 6 5 C6 5.66 6 6.32 6 7 C5.34 7 4.68 7 4 7 C4 6.34 4 5.68 4 5 C2.68 4.67 1.36 4.34 0 4 C0 2.68 0 1.36 0 0 Z " fill="#B9F0F9" transform="translate(136,73)"/>
</svg>
